<svg xmlns="http://www.w3.org/2000/svg" width="68" height="68" viewBox="0 0 68 68">
  <g fill="#FEFEFE" fill-rule="evenodd">
    <path d="M30.3075,35.3814 L30.3075,30.7374 C30.3075,28.5934 32.0515,26.8484 34.1955,26.8484 C36.3405,26.8484 38.0845,28.5934 38.0845,30.7374 L38.0845,35.3814 L30.3075,35.3814 Z M34.1955,21.1894 C29.2065,21.1894 25.1045,25.0394 24.6895,29.9234 C24.6705,30.0584 24.6485,30.1924 24.6485,30.3324 L24.6485,43.3484 C24.6485,44.9104 25.9155,46.1774 27.4785,46.1774 C29.0405,46.1774 30.3075,44.9104 30.3075,43.3484 L30.3075,41.0404 L38.0845,41.0404 L38.0845,43.3484 C38.0845,44.9104 39.3505,46.1774 40.9135,46.1774 C42.4765,46.1774 43.7435,44.9104 43.7435,43.3484 L43.7435,30.3324 C43.7435,30.1924 43.7215,30.0584 43.7015,29.9234 C43.2865,25.0394 39.1855,21.1894 34.1955,21.1894 L34.1955,21.1894 Z"/>
    <path d="M34.1958,61.5539 C18.8278,61.5539 6.3258,49.0519 6.3258,33.6839 C6.3258,18.3159 18.8278,5.8139 34.1958,5.8139 C49.5638,5.8139 62.0658,18.3159 62.0658,33.6839 C62.0658,49.0519 49.5638,61.5539 34.1958,61.5539 M34.1958,0.1549 C15.7078,0.1549 0.6668,15.1959 0.6668,33.6839 C0.6668,52.1719 15.7078,67.2129 34.1958,67.2129 C52.6838,67.2129 67.7248,52.1719 67.7248,33.6839 C67.7248,15.1959 52.6838,0.1549 34.1958,0.1549"/>
  </g>
</svg>
